<mxfile host="app.diagrams.net" agent="Mozilla/5.0 (Windows NT 10.0; Win64; x64) AppleWebKit/537.36 (KHTML, like Gecko) Chrome/131.0.0.0 Safari/537.36" version="24.8.6" pages="4">
  <diagram name="Page-1" id="StZtiPLZ6SDIaMiqdbI1">
    <mxGraphModel dx="1434" dy="694" grid="1" gridSize="10" guides="1" tooltips="1" connect="1" arrows="1" fold="1" page="1" pageScale="1" pageWidth="850" pageHeight="1100" math="0" shadow="0">
      <root>
        <mxCell id="0" />
        <mxCell id="1" parent="0" />
        <mxCell id="3KSV_KojVErBXAQ5BFWH-1" value="ARTIFICIAL INTELLIGENCE&lt;div&gt;&lt;br&gt;&lt;/div&gt;&lt;div&gt;Randy Huerta &amp;amp; Abdul Issaka&lt;/div&gt;" style="rounded=0;whiteSpace=wrap;html=1;fillColor=#1ba1e2;strokeColor=#006EAF;fontColor=#ffffff;" vertex="1" parent="1">
          <mxGeometry width="850" height="110" as="geometry" />
        </mxCell>
        <mxCell id="3KSV_KojVErBXAQ5BFWH-2" value="&lt;font color=&quot;#ffffff&quot;&gt;Summary of AI&lt;/font&gt;" style="rounded=0;whiteSpace=wrap;html=1;fillColor=#000000;" vertex="1" parent="1">
          <mxGeometry y="160" width="850" height="90" as="geometry" />
        </mxCell>
        <mxCell id="3KSV_KojVErBXAQ5BFWH-3" value="&amp;nbsp; &amp;nbsp; &amp;nbsp; &amp;nbsp; &amp;nbsp; &amp;nbsp; &amp;nbsp; &amp;nbsp; &amp;nbsp; &amp;nbsp; &amp;nbsp; Intro&amp;nbsp; &amp;nbsp;Sources Topics" style="rounded=0;whiteSpace=wrap;html=1;strokeColor=#808080;align=left;" vertex="1" parent="1">
          <mxGeometry y="110" width="850" height="50" as="geometry" />
        </mxCell>
        <mxCell id="3KSV_KojVErBXAQ5BFWH-4" value="&lt;div style=&quot;font-size: 21px;&quot;&gt;&lt;br&gt;&lt;/div&gt;&lt;div style=&quot;font-size: 21px;&quot;&gt;CAROUSEL: IMAGES OF DIFFERENT MOMENTS IN AI HISTORY&lt;/div&gt;" style="whiteSpace=wrap;html=1;aspect=fixed;" vertex="1" parent="1">
          <mxGeometry y="250" width="850" height="850" as="geometry" />
        </mxCell>
        <mxCell id="3KSV_KojVErBXAQ5BFWH-9" value="" style="shape=actor;whiteSpace=wrap;html=1;" vertex="1" parent="1">
          <mxGeometry x="300" y="380" width="220" height="250" as="geometry" />
        </mxCell>
        <mxCell id="3KSV_KojVErBXAQ5BFWH-10" value="" style="shape=singleArrow;whiteSpace=wrap;html=1;" vertex="1" parent="1">
          <mxGeometry x="740" y="500" width="100" height="60" as="geometry" />
        </mxCell>
        <mxCell id="3KSV_KojVErBXAQ5BFWH-11" value="" style="verticalLabelPosition=bottom;verticalAlign=top;html=1;shape=mxgraph.basic.polygon;polyCoords=[[0.25,0],[0.75,0],[1,0.25],[1,0.75],[0.75,1],[0.25,1],[0,0.75],[0,0.25]];polyline=0;" vertex="1" parent="1">
          <mxGeometry x="10" y="115" width="50" height="40" as="geometry" />
        </mxCell>
        <mxCell id="uYUD47957bx7N77h9qiZ-1" value="" style="shape=offPageConnector;whiteSpace=wrap;html=1;size=0.6;" vertex="1" parent="1">
          <mxGeometry x="200" y="130" width="30" height="25" as="geometry" />
        </mxCell>
        <mxCell id="uYUD47957bx7N77h9qiZ-2" style="edgeStyle=orthogonalEdgeStyle;rounded=0;orthogonalLoop=1;jettySize=auto;html=1;exitX=0.5;exitY=0;exitDx=0;exitDy=0;entryX=0;entryY=0.25;entryDx=0;entryDy=0;" edge="1" parent="1" source="uYUD47957bx7N77h9qiZ-1" target="uYUD47957bx7N77h9qiZ-1">
          <mxGeometry relative="1" as="geometry" />
        </mxCell>
      </root>
    </mxGraphModel>
  </diagram>
  <diagram id="2Rkn6WL6YBTt_vonfjUh" name="Page-2">
    <mxGraphModel dx="584" dy="2894" grid="1" gridSize="10" guides="1" tooltips="1" connect="1" arrows="1" fold="1" page="1" pageScale="1" pageWidth="850" pageHeight="1100" math="0" shadow="0">
      <root>
        <mxCell id="0" />
        <mxCell id="1" parent="0" />
        <mxCell id="R90Q366RpT5wcSP5Ayvn-1" value="&lt;font style=&quot;font-size: 29px;&quot;&gt;SOURCES&lt;/font&gt;" style="rounded=0;whiteSpace=wrap;html=1;fillColor=#1ba1e2;fontColor=#ffffff;strokeColor=#006EAF;" vertex="1" parent="1">
          <mxGeometry x="850" y="-1790" width="850" height="100" as="geometry" />
        </mxCell>
        <mxCell id="fysWiuyXMy1aZG-ctPNs-1" value="&amp;nbsp; &amp;nbsp; &amp;nbsp; &amp;nbsp; &amp;nbsp; &amp;nbsp; &amp;nbsp; &amp;nbsp; &amp;nbsp; &amp;nbsp; &amp;nbsp; Intro&amp;nbsp; &amp;nbsp;Sources Topics(dropdown)" style="rounded=0;whiteSpace=wrap;html=1;strokeColor=#333333;align=left;" vertex="1" parent="1">
          <mxGeometry x="850" y="-1690" width="850" height="50" as="geometry" />
        </mxCell>
        <mxCell id="fysWiuyXMy1aZG-ctPNs-2" value="" style="verticalLabelPosition=bottom;verticalAlign=top;html=1;shape=mxgraph.basic.polygon;polyCoords=[[0.25,0],[0.75,0],[1,0.25],[1,0.75],[0.75,1],[0.25,1],[0,0.75],[0,0.25]];polyline=0;" vertex="1" parent="1">
          <mxGeometry x="850" y="-1690" width="70" height="50" as="geometry" />
        </mxCell>
        <mxCell id="LAglZuc0ehfHzbJXP-yX-1" value="Cards for a link of our sources." style="whiteSpace=wrap;html=1;aspect=fixed;" vertex="1" parent="1">
          <mxGeometry x="850" y="-1500" width="240" height="240" as="geometry" />
        </mxCell>
        <mxCell id="gTeb2QcOYJ8fLH949fnN-1" value="Cards for a link of our sources." style="whiteSpace=wrap;html=1;aspect=fixed;" vertex="1" parent="1">
          <mxGeometry x="1460" y="-1510" width="240" height="240" as="geometry" />
        </mxCell>
        <mxCell id="gTeb2QcOYJ8fLH949fnN-2" value="Explanation of what the website will talk about" style="rounded=1;whiteSpace=wrap;html=1;" vertex="1" parent="1">
          <mxGeometry x="850" y="-1260" width="240" height="60" as="geometry" />
        </mxCell>
        <mxCell id="gTeb2QcOYJ8fLH949fnN-3" value="Explanation of what the website will talk about" style="rounded=1;whiteSpace=wrap;html=1;" vertex="1" parent="1">
          <mxGeometry x="1460" y="-1270" width="240" height="60" as="geometry" />
        </mxCell>
        <mxCell id="gTeb2QcOYJ8fLH949fnN-4" value="Cards for a link of our sources." style="whiteSpace=wrap;html=1;aspect=fixed;" vertex="1" parent="1">
          <mxGeometry x="1150" y="-1160" width="240" height="240" as="geometry" />
        </mxCell>
        <mxCell id="gTeb2QcOYJ8fLH949fnN-5" value="Explanation of what the website will talk about" style="rounded=1;whiteSpace=wrap;html=1;" vertex="1" parent="1">
          <mxGeometry x="1150" y="-920" width="240" height="60" as="geometry" />
        </mxCell>
      </root>
    </mxGraphModel>
  </diagram>
  <diagram id="uWoTmMXdZ1oOFqCHAIup" name="Page-3">
    <mxGraphModel dx="1434" dy="1794" grid="1" gridSize="10" guides="1" tooltips="1" connect="1" arrows="1" fold="1" page="1" pageScale="1" pageWidth="850" pageHeight="1100" math="0" shadow="0">
      <root>
        <mxCell id="0" />
        <mxCell id="1" parent="0" />
        <mxCell id="stGwtSwRr6D5mC_7CRPG-1" value="&lt;font style=&quot;font-size: 23px;&quot;&gt;HISTORY OF AI INTELLIGENCE&lt;/font&gt;" style="rounded=0;whiteSpace=wrap;html=1;fillColor=#1ba1e2;fontColor=#ffffff;strokeColor=#006EAF;" vertex="1" parent="1">
          <mxGeometry y="-360" width="850" height="180" as="geometry" />
        </mxCell>
        <mxCell id="stGwtSwRr6D5mC_7CRPG-2" value="" style="endArrow=none;html=1;rounded=0;" edge="1" parent="1">
          <mxGeometry width="50" height="50" relative="1" as="geometry">
            <mxPoint x="400" y="711" as="sourcePoint" />
            <mxPoint x="400" y="-90" as="targetPoint" />
          </mxGeometry>
        </mxCell>
        <mxCell id="JJknNGsUOIEUnGh6iwnB-1" value="&amp;nbsp; &amp;nbsp; &amp;nbsp; &amp;nbsp; &amp;nbsp; &amp;nbsp; &amp;nbsp; &amp;nbsp; &amp;nbsp; &amp;nbsp; &amp;nbsp; Intro&amp;nbsp; &amp;nbsp;Sources Topics(dropdown)" style="rounded=0;whiteSpace=wrap;html=1;strokeColor=#333333;align=left;" vertex="1" parent="1">
          <mxGeometry y="-180" width="850" height="50" as="geometry" />
        </mxCell>
        <mxCell id="JJknNGsUOIEUnGh6iwnB-2" value="" style="verticalLabelPosition=bottom;verticalAlign=top;html=1;shape=mxgraph.basic.polygon;polyCoords=[[0.25,0],[0.75,0],[1,0.25],[1,0.75],[0.75,1],[0.25,1],[0,0.75],[0,0.25]];polyline=0;" vertex="1" parent="1">
          <mxGeometry x="10" y="-180" width="50" height="50" as="geometry" />
        </mxCell>
        <mxCell id="JJknNGsUOIEUnGh6iwnB-3" value="Description of different AI people , moment and inventions occured in AI history" style="shape=callout;whiteSpace=wrap;html=1;perimeter=calloutPerimeter;position2=1;base=50;size=10;position=0.5;" vertex="1" parent="1">
          <mxGeometry x="170" y="-100" width="230" height="100" as="geometry" />
        </mxCell>
        <mxCell id="JJknNGsUOIEUnGh6iwnB-4" value="Description of different AI people , moment and inventions occured in AI history" style="shape=callout;whiteSpace=wrap;html=1;perimeter=calloutPerimeter;position2=1;base=50;size=10;position=0.5;" vertex="1" parent="1">
          <mxGeometry x="170" y="140" width="230" height="100" as="geometry" />
        </mxCell>
        <mxCell id="JJknNGsUOIEUnGh6iwnB-5" value="Description of different AI people , moment and inventions occured in AI history" style="shape=callout;whiteSpace=wrap;html=1;perimeter=calloutPerimeter;position2=1;base=50;size=10;position=0.5;" vertex="1" parent="1">
          <mxGeometry x="170" y="430" width="230" height="100" as="geometry" />
        </mxCell>
        <mxCell id="JJknNGsUOIEUnGh6iwnB-7" value="Description of different AI people , moment and inventions occured in AI history" style="shape=callout;whiteSpace=wrap;html=1;perimeter=calloutPerimeter;position2=1;base=50;size=10;position=0.5;rotation=-180;" vertex="1" parent="1">
          <mxGeometry x="400" y="280" width="230" height="100" as="geometry" />
        </mxCell>
        <mxCell id="JJknNGsUOIEUnGh6iwnB-8" value="Description of different AI people , moment and inventions occured in AI history" style="shape=callout;whiteSpace=wrap;html=1;perimeter=calloutPerimeter;position2=1;base=50;size=10;position=0.5;rotation=-180;" vertex="1" parent="1">
          <mxGeometry x="400" y="30" width="230" height="100" as="geometry" />
        </mxCell>
        <mxCell id="JJknNGsUOIEUnGh6iwnB-9" value="Description of different AI people , moment and inventions occured in AI history" style="shape=callout;whiteSpace=wrap;html=1;perimeter=calloutPerimeter;position2=1;base=50;size=10;position=0.5;rotation=-180;" vertex="1" parent="1">
          <mxGeometry x="400" y="590" width="230" height="100" as="geometry" />
        </mxCell>
      </root>
    </mxGraphModel>
  </diagram>
  <diagram id="_xugy4FgX0pbYFbaE9jX" name="Page-4">
    <mxGraphModel dx="1434" dy="1794" grid="1" gridSize="10" guides="1" tooltips="1" connect="1" arrows="1" fold="1" page="1" pageScale="1" pageWidth="850" pageHeight="1100" math="0" shadow="0">
      <root>
        <mxCell id="0" />
        <mxCell id="1" parent="0" />
        <mxCell id="_jX1qRFnvPoXKy-WcWCG-9" value="AI Type" style="rounded=0;whiteSpace=wrap;html=1;" vertex="1" parent="1">
          <mxGeometry y="-200" width="230" height="80" as="geometry" />
        </mxCell>
        <mxCell id="_jX1qRFnvPoXKy-WcWCG-10" value="Narrow AI" style="rounded=0;whiteSpace=wrap;html=1;" vertex="1" parent="1">
          <mxGeometry y="-120" width="230" height="130" as="geometry" />
        </mxCell>
        <mxCell id="_jX1qRFnvPoXKy-WcWCG-11" value="General AI" style="rounded=0;whiteSpace=wrap;html=1;" vertex="1" parent="1">
          <mxGeometry y="10" width="230" height="130" as="geometry" />
        </mxCell>
        <mxCell id="_jX1qRFnvPoXKy-WcWCG-12" value="Superintelligent AI" style="rounded=0;whiteSpace=wrap;html=1;" vertex="1" parent="1">
          <mxGeometry y="140" width="230" height="130" as="geometry" />
        </mxCell>
        <mxCell id="_jX1qRFnvPoXKy-WcWCG-13" value="Key Characteristics and Examples" style="rounded=0;whiteSpace=wrap;html=1;" vertex="1" parent="1">
          <mxGeometry x="230" y="-200" width="370" height="80" as="geometry" />
        </mxCell>
        <mxCell id="_jX1qRFnvPoXKy-WcWCG-14" value="Info on Narrow AI" style="rounded=0;whiteSpace=wrap;html=1;" vertex="1" parent="1">
          <mxGeometry x="230" y="-120" width="370" height="130" as="geometry" />
        </mxCell>
        <mxCell id="_jX1qRFnvPoXKy-WcWCG-15" value="Info General AI" style="rounded=0;whiteSpace=wrap;html=1;" vertex="1" parent="1">
          <mxGeometry x="230" y="10" width="370" height="130" as="geometry" />
        </mxCell>
        <mxCell id="_jX1qRFnvPoXKy-WcWCG-16" value="Info Superintelligent AI" style="rounded=0;whiteSpace=wrap;html=1;" vertex="1" parent="1">
          <mxGeometry x="230" y="140" width="370" height="130" as="geometry" />
        </mxCell>
        <mxCell id="_jX1qRFnvPoXKy-WcWCG-17" value="Unique Capabilities" style="rounded=0;whiteSpace=wrap;html=1;" vertex="1" parent="1">
          <mxGeometry x="600" y="-200" width="220" height="80" as="geometry" />
        </mxCell>
        <mxCell id="_jX1qRFnvPoXKy-WcWCG-18" value="Different Unique Capabilities" style="rounded=0;whiteSpace=wrap;html=1;" vertex="1" parent="1">
          <mxGeometry x="600" y="-120" width="220" height="130" as="geometry" />
        </mxCell>
        <mxCell id="_jX1qRFnvPoXKy-WcWCG-19" value="Different Unique Capabilities" style="rounded=0;whiteSpace=wrap;html=1;" vertex="1" parent="1">
          <mxGeometry x="600" y="10" width="220" height="130" as="geometry" />
        </mxCell>
        <mxCell id="_jX1qRFnvPoXKy-WcWCG-20" value="Different Unique Capabilities" style="rounded=0;whiteSpace=wrap;html=1;" vertex="1" parent="1">
          <mxGeometry x="600" y="140" width="220" height="130" as="geometry" />
        </mxCell>
        <mxCell id="_jX1qRFnvPoXKy-WcWCG-21" value="Limitations" style="rounded=0;whiteSpace=wrap;html=1;" vertex="1" parent="1">
          <mxGeometry x="820" y="-200" width="120" height="80" as="geometry" />
        </mxCell>
        <mxCell id="_jX1qRFnvPoXKy-WcWCG-22" value="Limitations of this AI" style="rounded=0;whiteSpace=wrap;html=1;" vertex="1" parent="1">
          <mxGeometry x="820" y="-120" width="120" height="130" as="geometry" />
        </mxCell>
        <mxCell id="_jX1qRFnvPoXKy-WcWCG-23" value="Limitations of this AI" style="rounded=0;whiteSpace=wrap;html=1;" vertex="1" parent="1">
          <mxGeometry x="820" y="10" width="120" height="130" as="geometry" />
        </mxCell>
        <mxCell id="_jX1qRFnvPoXKy-WcWCG-24" value="Limitations of this AI" style="rounded=0;whiteSpace=wrap;html=1;" vertex="1" parent="1">
          <mxGeometry x="820" y="140" width="120" height="130" as="geometry" />
        </mxCell>
      </root>
    </mxGraphModel>
  </diagram>
</mxfile>
